<?xml version="1.0" encoding="utf-8"?>
<!-- Generator: Adobe Illustrator 27.2.0, SVG Export Plug-In . SVG Version: 6.00 Build 0)  -->
<svg version="1.1" id="Lager_1" xmlns="http://www.w3.org/2000/svg" xmlns:xlink="http://www.w3.org/1999/xlink" x="0px" y="0px"
	 viewBox="0 0 333 333" style="enable-background:new 0 0 333 333;" xml:space="preserve">
<style type="text/css">
	.st0{fill:#FFFFFF;}
</style>
<g>
	
		<rect x="149.8" y="149.4" transform="matrix(0.9397 -0.342 0.342 0.9397 -46.8319 67.0046)" class="st0" width="33.6" height="33.8"/>
	<path class="st0" d="M120.9,312.6c15.1-5.5,23-22.1,17.6-37.3l-10-27.6l-27.6,10c-15.1,5.5-22.9,22.3-17.4,37.4
		C89.1,310.3,105.9,318.1,120.9,312.6L120.9,312.6z"/>
	<path class="st0" d="M293.1,21.7c14.3,39.2-5.8,82.6-45,96.9c-0.1,0.1-0.3,0.1-0.4,0.2l-27.1,9.9l11.5,31.7l27.1-9.9
		c25.1-9,53-4.3,73.7,12.5V0h-52.2C286.1,6.5,290.3,13.9,293.1,21.7z"/>
	<path class="st0" d="M275.2,194.4l-27.1,9.9l10,27.6c5.5,15,22.1,22.8,37.1,17.3c15-5.5,22.8-22.1,17.3-37.1l0,0
		C307,196.9,290.4,189,275.2,194.4z"/>
	<path class="st0" d="M37.7,83.8C22.6,89.3,14.8,106,20.3,121c5.5,15.1,22.1,22.8,37.2,17.3l27.6-10l-9.9-27.3
		C69.5,86,52.8,78.3,37.7,83.8z"/>
	<path class="st0" d="M204.6,84.8l27.1-9.8c15.1-5.4,22.9-22,17.6-37.1s-22-22.9-37.1-17.6s-22.9,22-17.6,37.1c0,0.1,0,0.1,0.1,0.2
		L204.6,84.8z"/>
	<path class="st0" d="M39.9,311.3C25.6,272,45.8,228.5,85,214l27.6-10L101,172.2l-27.6,10C48.5,191.4,20.6,186.7,0,170v163h52.2
		C46.9,326.5,42.7,319.2,39.9,311.3z"/>
	<path class="st0" d="M311.2,293.1c-39.3,14.3-82.9-5.9-97-45.2l-10-27.6l-31.6,11.5l10,27.6c9,25.1,4.3,53-12.6,73.7h163v-52.3
		C326.5,286,319.1,290.2,311.2,293.1z"/>
	<path class="st0" d="M21.7,40c39.4-14.4,83,5.7,97.5,45.1l9.9,27.3l31.6-11.5l-9.9-27.3c-9.2-25-4.5-53,12.3-73.6H0v52.3
		C6.5,47,13.8,42.9,21.7,40z"/>
</g>
</svg>
